<?xml version="1.0" encoding="utf-8"?>
<!-- Generator: Adobe Illustrator 24.0.1, SVG Export Plug-In . SVG Version: 6.00 Build 0)  -->
<svg version="1.1" id="Layer_1" xmlns="http://www.w3.org/2000/svg" xmlns:xlink="http://www.w3.org/1999/xlink" x="0px" y="0px"
	 viewBox="0 0 650 455.5" style="enable-background:new 0 0 650 455.5;" xml:space="preserve">
<style type="text/css">
	.st0{fill:#D6219C;}
	.st1{clip-path:url(#SVGID_2_);}
	.st2{fill:url(#SVGID_3_);}
	.st3{fill:#FFFFFF;}
	.st4{fill:#1E1B1C;}
	.st5{fill:url(#SVGID_4_);}
	.st6{fill:url(#SVGID_5_);}
	.st7{fill:#80C7F5;}
	.st8{fill:url(#SVGID_6_);}
	.st9{fill:#F8A58D;}
	.st10{fill:url(#SVGID_7_);}
	.st11{fill:#FFA68C;}
	.st12{fill:url(#SVGID_8_);}
	.st13{fill:url(#SVGID_9_);}
	.st14{fill:url(#SVGID_10_);}
	.st15{fill:#871FFF;}
	.st16{fill:url(#SVGID_11_);}
</style>
<path class="st0" d="M256.7,114h12.9h18.7h30.2h28.8h23c0-14.3-11.6-25.9-25.9-25.9c-2.2,0-4.3,0.3-6.4,0.8
	c-7.1-8.4-17.8-13.7-29.6-13.7c-15.8,0-29.5,9.5-35.5,23.1c-0.2,0-0.3,0-0.5,0C263.8,98.2,256.7,105.3,256.7,114z"/>
<path class="st0" d="M93.5,143.8h5.8h8.5h13.7h13h10.4c0-6.5-5.2-11.7-11.7-11.7c-1,0-2,0.1-2.9,0.4c-3.2-3.8-8-6.2-13.4-6.2
	c-7.2,0-13.3,4.3-16.1,10.4c-0.1,0-0.1,0-0.2,0C96.7,136.7,93.5,139.9,93.5,143.8z"/>
<g>
	<defs>
		<rect id="SVGID_1_" x="46.6" y="214.7" width="550.2" height="258.5"/>
	</defs>
	<clipPath id="SVGID_2_">
		<use xlink:href="#SVGID_1_"  style="overflow:visible;"/>
	</clipPath>
	<g class="st1">
		<linearGradient id="SVGID_3_" gradientUnits="userSpaceOnUse" x1="135.1059" y1="49.8639" x2="482.9806" y2="361.1752">
			<stop  offset="8.011200e-04" style="stop-color:#D20F8C"/>
			<stop  offset="0.9984" style="stop-color:#80C7F5"/>
		</linearGradient>
		<circle class="st2" cx="321.7" cy="216.9" r="228.7"/>
		<path class="st3" d="M296.2,22.4c-2,0.5-2,1.1-5.6-2c-1.2-1-2.3-0.4-2.2-2.1c0.4-4.7-2.5-3-4.8-4.1c-1.6-0.8,2.4-3.1,5-1.9
			c1.3,0.6,2.4,0.5,3.5-0.4c0.6-0.6,5.4-1.3,5.4-2c0-1.4-3.7,0.1-5-0.5c-2.3-1.2,6.1-2.5,5.4-4.4c-0.3-0.7-0.9-0.2-1.4-0.2
			c-0.1,0-0.6-0.1-0.3,0.3c0.4,0.5-1.3,1-1.8,0.6c-0.1,0,0.1-0.3,0.1-0.4c-0.1-1-0.5-1.3-1.1-0.8c-2.4,1.6-3.5,1-5.5,3.1
			c-1.4,1.5-8.5-0.1-8.5,2.4c0,2.8,0.6,4.2-2.6,4.2c-1.1,0-1-1.6-2-1.4c-5.4,0.7-3.9,0.7-4.2-0.3c-0.5-2.4,1.7-0.7,3.5-2.6
			c-2.7-1-27.7,4.9-25.4,7.8c0.3,0.4-2.6,3-3,3.5c0.8,0.4,1.6,0.3,1.9,1.1c0.4,1,1.4,1.9,0.6,3.2c-0.1,0.2,0,0.6,0.1,0.8
			c2.8,4.2,1.2,1.8,3.8,3.6c2.3,1.6-4.7,3.6-2.6,5.6c0.5,0.5,0.3,1.3-0.3,1.5c-0.9,0.3-2.4,0.1-2.2,1c0.2,0.8-0.6,1.6,0,2.3
			c1.1-0.3,3.8-0.6,4.9-2.8c0.8-1.6,2.4-2.6,3.2-4.3c0.3-0.6,1-0.7,1.7-0.7c4.2,0.1,11.7-3,10.5-7.2c-0.5-2,2.7-1.1,6-4.3
			c8.2-7.9,5.7-2.3,11.1-2.5c0.5,0,1.4,0.9,1.4,2.3c0,1.8,2.3,1.7,1,3.1c-1.8,2-3.3,2.8-2.4,3.7c1,1,0.4,2,2.3,1.6
			c6-1.1,9.3-7.2,7.8,0.7c-0.4,1.9,1,4.8-1.1,6.5c-0.6,0.5-0.4,1-0.1,1.7c2.1,4.2,5.3,3,4.7,5.3c-0.7,2.5,3.4,1.7,1.6,4.7
			c-0.2,0.3-0.5,1.7-0.8,2c-0.5,0.5-1.3,0.8-1.7,1.3c-0.4,0.5-0.4,1.4-0.7,2c-0.9,1.3-3.1,1-1.6,2.5c0.9,1,0.5,2.1,3.6,2.1
			c1.2,0,1.7,0.9,1,1.8c-2.3,3.3,2.6,6.2-2.2,7.6c-0.9,0.3-1.3-0.9-1.5-1.8c-0.5-2.1-1.6-0.1-2.9-1.6c-1.7-1.8-11.4-1.5-9.4-3.6
			c0.9-0.9,2.2-1.3,2.8-2.4c1.2-0.7,7.7-5.9,7.8-6.1c-3.1-1.8-6,2.5-10.8,1.3c-2-0.5-4-0.8-6.1-1.3c-2.4-0.5-3.4-3.7-13.4,1.3
			c3.6,0.1,3.6-0.7,8.3,0c2.3,0.3,1.8,3.1,0.7,3.1c-1.9,0-2.2,1.9-3.2,2.8c-1.9,1.7,0.6,5.3,2.9,5.6c2.5,0.4,1.7-0.2,5.3-2.4
			c1.2-0.7,1.9-0.1,1.8,0.5c-0.6,3.8,0.3,3.1-3.5,3.8c-2.4,0.4-2,1.2-4.6,1.2c-1.8,0-3.5,0.6-5.3,0.5c-0.8,0-1.6,0.7-2.4,1.1
			c-2.7,1.4-4.9,0.6-4.1-1c1.8-3.3,2.2-1.8,3.4-3c-2-1.2-3.6,0.8-6.3,0.8c-4.7,0-9.9,0.7-10.7,5.1c-0.6,3.3-5,0.8-8.2,3
			c-0.4,0.3-1,0.4-1.5,0.3c-3.1-0.3-3.2,3.3-6.8,3.7c-0.3,0-0.7,0.4-0.7,0.7c-0.2,1.3-2.8,3.2-3.7,3.7c-4.1,2.2-2.5,7.4-5.9,7
			c-0.7-0.1-0.9,0-1.2,0.6c-0.8,2.2-2.8,0.2-5.7,2.4c-0.1,0.1-0.3,0.3-0.5,0.3c-2.7-0.2-3.5,1.8-7.5,3.2c-12.9,4.4-6.4,22.2-15,25.7
			c-3.8,1.5-2.2-9.9-1.8-11.4c1.2-4.7,2.5-1.4,1.9-7.8c-0.1-0.8-1.9-0.1-2.7-0.1c-2.3,0,0.3-3.7-4.4-3.9c-1.9-0.1-3.6-2-4.6,0
			c-0.2,0.5-0.3,1.5-0.9,1.5c-7.6,0.7-2.5-0.7-5.7-2.4c-1.1-0.6-3.1-2.1-4.6-1.1c-4.1,2.8-5.5,0.8-8.6,5.2c-2.6,3.7-1.3,4.6-3.3,6
			c-6.1,4.2-15.3,29.1-4.4,27.5c2.4-0.4,1.6,1.2,3.9-0.6c6.4-4.9,0.6-6.6,9.6-6.9c1.5,0,2.7,0.9,4.1,1.3c0.7,0.2,0.5,2.5-0.9,3.4
			c-1.8,1.1-2.8,2.8-3.4,4.7c-1.1,3.4-3.6,3.5-4.4,6.3c-1.9,6.2-7.6,4.9,5.4,8c3.1,0.8,0.5,2.5,2.5,3.4c3.6,1.6-7.5,15.3-4.7,20.7
			c1.4,2.7,1.8,8.8,6.6,5.2c1.1-0.8,2-1.1,3.1-0.1c4.9,0.8,3.5,7.8,7.1,4.5c1.3-1.2,1.1-1.9,2-1.8c1.2,0.1,1.1-0.9,1.5-1.9
			c2.4-6.2,5.5-0.5,12.3-5.3c3-2.1,5.8,1,4.7,1.9c-1.5,1.2-2.8,2-2.8,2c-1,1,3.1,1.9,4-1.2c0.5-1.9,3.1-1,3.1,0.3
			c0,1.2,0.4,1.5,3,3.1c1.5,0.9,0.6,1.2,1.2,3.3c0.1,0.2,0.3,0.5,0.5,0.5c2.8,0.4,4.3-0.3,6.3,1.8c3.6,3.7,4.6-0.5,10.9,1.6
			c1,0.3,1,0.3,1.1,1.5c0.1,1.6,1.4,1.7,1.9,0.9c0.8-1.2,0.2-3.4,3.5-1.1c0.9,0.6-0.1,2.5-0.9,2.9c-0.7,0.3-0.5,0.8-0.2,1.3
			c1.8,2.7-0.3,2.7,3.3,5.1c4.2,2.9,3.5,6.5,6.2,8.9c3.8,3.5-2.2,2.3,11.1,4.9c6,1.2,9.1,8.3,11.5,8.6c0.9,0.1,1.4,4.2,1.3,4.9
			c-0.5,2.3,0.2,4.2,1.9,5.8c4.4,4.3-1.4,3.1,0.8,6.1c0.4,0.5,0.5,1.2,1,1.5c2.3,2,3.8,1.3,4.6,3.1c0.3,0.6,0.8,0.7,1.4,0.7
			c4.3,0.4,9.9,5.1,11.3,5.3c0.7,0.8,1.6,1.5,1.6,2.7c0,0.4,0.1,0.9,0.3,1.2c0,0,4.3,0.4,5.6,1.5c5.6,4.5,10.9-0.8,18.1,9.1
			c5.5,7.4,11.3,2.9,11,8.6c-0.2,3.4,2,4.4-0.7,10.1c-1.4,3-3,3.5-4,4.6c-4,4.3-1.8,2.2-5.6,4.4c-2.4,1.4-3.3,5.9-7.2,6.4
			c-3.5,0.4-1.7,10.7-3.8,13.9c-0.3,0.5-0.4,1.4-0.4,2c0.2,2.6-3.3,1.3-2.7,5.9c0.2,1.8-5.7,5.1-5.7,7.7c0,3.3-3.6,1.6-4.5,3.8
			c-0.1,0.2-0.6,0.4-0.9,0.3c-2-0.3-3.9-0.6-5.9-0.4c-1.7,0.2-2-1.7-3.9-0.2c-2.7,2.1-9,1.3-11.7,5.3c-1.7-0.1-1.4,1.1-1.5,4.7
			c-0.1,6.8-4.1,5.2-5.8,9.4c-2.3,5.6-5.7,3-7.4,7.4c-0.4,1-2.9,2.3-3.8,3.3c-1.4,1.4-3,1.7-4.7,1.2c-1.4-0.4-2.9-0.2-4.3-0.5
			c-0.9-0.2-1.5,1.5-0.9,2.2c1.2,1.1,3.5,1,0.3,5.1c-0.9,1.2-2.1,1.8-3.7,1.9c-8.6,0.5-8.8-1.7-8.3,2.8c0.1,0.9-0.3,1.4-1.1,1.5
			c-2.8,0.5-4.5-0.8-5.7-1.3c-0.7-0.3-0.1,2.3,1.9,2.4c2,0,3.4,2.3,1.6,2.9c-2.5,0.8-1.5,1.6-1.6,2.9c-0.1,2.8-2.9,1.3-3.4,2.7
			c-0.4,1.2,0.8,1.8,4.1,3.3c1.5,0.7,2.3,2.7,0.8,3.6c-1.9,1.1-0.6,2.1-1.7,3.3c-0.6,0.6-1.2,0.4-0.2,1.5c7.7,8.5,7.5,6.2,11,8.4
			c3.8,2.4-6.8,4.4-19.7-7.1c-0.4-0.4-0.8-0.8-1.3-1c-3.6-1.2-3.6-4.8-5.8-6.7c-2.2-1.8-0.5-2.4-1.5-4.3c-1.7-3.5-1.6-8.4-1.6-8.4
			c-0.7-1.1-2.1-7.5-2.1-7.6c-1.7,1.2-0.6,1.8-0.4,3.7c0.2,1.8-2.9,0.7-2.8-2.8c0-0.8-2.1-8.6-3.4-10.6c-0.5-0.9,0.6-1.5,0.4-2.2
			c-0.1-0.7-0.6-1.4-1-2.1c1.2-1.2-0.2-2.6,0.1-3.8c2.1-8.2-3.2-12.9-1.9-17c0.1-0.4,0-0.9-0.2-1.3c-1.4-2.6,1.4-14.9-0.7-19.4
			c-0.3-0.7-0.5-1.4-0.1-2.1c1-1.8-0.5-15.4-1.9-17c-8.2-9.8-17.7-15.4-17.5-20.3c0.2-3.5-2.4-5.8-6.2-18c-5.8-18.2-4.9-12.4-7-16.4
			c-0.2-0.4-0.3-0.9-0.2-1.3c0.3-0.5,0.5-1.5,0-3.1c-1.7-5,3.4-5.5,3.5-6.9c0.1-1.6-3.3-3.4-0.3-9.1c0.7-1.4,1.3-3,2.4-4.2
			c0.2-0.2,0.3-0.5,0.3-0.7c0.1-3,2.4-0.9,3.6-3.3c1.1-2.2,1.8-3.8,2.8-4c1.6-0.3,3.7-2.8,3.3-3.7c-0.6-1.5,0.7-6.2,1.4-7.5
			c1.7-3-1-5.4-1.1-10.5c0-1.1-0.5-3.3-1.8-2.4c-4.2,2.7-0.7,4-3.4,4.8c-3.5,1.2-3.2-5.1-5.9-5.6c-0.9-0.2-2.8-2.1-2.7-3
			c0.7-4.1-3.9-4-3.9-7.3c0-1.3,1.4-1.7,0.2-6.5c-0.5-2-1.4-3.8-1.4-6c0-0.2-0.3-0.5-0.5-0.6c-2.6-0.8-5-4.4-5.2-4.5
			c-5.4-2.4-1-13.8-7.4-11.6c-4.8,1.7-12.9-20.7-7.9-25.5c3.7-3.6,5.1-20.1,6.1-21.3c0.8-1,3.7-9.1,3.4-10.3
			c-0.6,0.5-7.3,14.6-7.4,17.1c0,0.9-1.3,3.8-2.5,3.7c-0.6-0.8,0.1-1.5,0.2-2.3c2.6-12.3,3.4-6,4.4-13.1c1-6.7,3.2-4,4.5-8.5
			c8-26.3,56.5-73.1,114.5-90.3c2.2-0.7,17-4.8,17.8-4.5c0.7,0.2-0.6,0.4-0.2,0.8c0.9,0.8,1.5,0.4,0.6,1.4c-0.5,0.5-1.8,1.7-2,2.4
			c0.2,0,0.4,0.1,0.5,0.1c6-1.7,5.9-1.4,6-2.3c0.1-1.4,11.4-2.9,12.5-2.7c0.4,0.1,0.5,1.1-0.6,1.5c-3.5,1.4-4.1,2.1,0.7,2.2
			c2,0.1,0.2,1-0.9,1c-9.3,0.3-6.5,5.7-16.8,4.6c-0.9-0.1-1.3,1.3-0.5,1.7c1.2,0.6,2.5,0.8,3.6,0c3-2.2,4.3-0.3,10.5-2.5
			c0.3-3.3,2.6-3.3,8.2-3.5c0.6,0,1.1,0,1.6,0.6c0.9,1,4-0.2,2.5-0.9c-0.2-0.1-0.6-0.3-0.6-0.4c0.6-1.6-0.9-0.5-3.3-1.3
			c-1-0.3-2-0.7-3.1-0.6c-0.1,0-0.2-0.1-0.4-0.2c1-1.2,5.7-3.7,10.8-2.7c1.5,0.3,5.4,0.4,5.7,0.6c-0.5,0.6-3.5,1-5,0.2
			c-0.9-0.5-2.1-0.4-3.5,0.7c1.2,0.5,0.9,0.3,1.4,0.7c-0.3,0.4-0.1,0.7,0.3,0.7c2.6-0.5,4.6,2,7.6,0.5c0.7-0.3,0.1-0.4-0.1-0.6
			c-0.9-1,1-1.1,3.8-1.6c1.2-0.2,0,1.1,0.9,1.5c0,0,14.3-2.4,25.3,1.5c0.8,2,2.8,0.5,3.9,1.5c0.8,0.7,1.6-0.2,2.3,0.2
			c1.3,0.7,1.7-0.5,2.8-0.4c2.3,0.2,4.7,0.2,7,0.7c6.5,1.4,3.2,3.3,7.5,2.9c1.6-0.1,3.4,0,2.8,1.2c-1.9,4-1.2,3.1,0.2,4.1
			c1.1,0.8,2.3,1.5,2.4,3c0.1,1.4,2,0.6,1.1,2.2c-0.3,0.6-0.4,1.5-0.8,1.9c-1.1,0.8-0.9,3.1,0.4,3.9c0.4,0.2,1,1.5,0.7,1.8
			c-5.2,6.1-12.6,2.3-15.1,5.1c-4.5,5-11.1,0.4-12.4,4.7c-0.9,2.8-2.6,1.5-4.5,5c-0.9,1.5-2.1,2.9-3.3,4.2c-0.3,0.3-1,0.5-1.5,0.4
			c-3.9-0.8-2.2-3.7-5.1-3.2c-3.6,0.6-3.6-3.8-4.9-4.8c0.2-1.1-1.5-4.6-0.4-6.2c0.8-1.2-1.9-2,0.4-3.8c0.2-2.1,2-2.6,3.5-3.3
			c1.4-0.7,2.8,0.8,3.7-1.8c-2.3-0.1-2.9,1-4.3,0.1c-1.9-1.3,1.9-2.5,3.1-3c1.3-0.5-3-0.6-1.3-1.7c1-0.7,2.7-2.8,1.8-6
			c-0.6-2-3.7-1.2-6.1-2.1c-1.2-0.4-1-1.8-0.3-2c1.1-0.3,1.4-1.2,1.9-2c6.2,0.5,7.3,0.9,7.3-0.1c-0.1-1.6-1.2-0.1-5.6-0.5
			c-0.6-0.1-1.2,0.1-1.7,0.6c-3.8,0.2-5.5,0.2-6.4,0.7c-2.4,1.2-4.2,0.3-5.2,0.5c-0.4,0.1-0.6,0.8-1,1c-3.1,1.7-9.3-0.8-10.7-1.8
			c-0.1-0.1-0.7,0.1-0.7,0.1c0.1,1.2-0.7,0.7-2.3,1.8c-6,0.2-5.3-0.9-11.2,3.3c-1.6,1.1,0.4,1-1.4,2.9c-0.8,0.9,2,1,4.4-0.7
			c2-1.4-5.2-1.1,8.1-5.5c7-0.5,3.8,0.5,7,1c1.2,0.2,4.4,1,3.7,2.2c-2.2,4.1,0.8,2.1,0.3,3.9c-0.1,0.5,0.5,0.7,0.8,1
			c1.3,1.3-0.1,3.7-2.1,3.6c-1.7-0.1,1.6,2.4,1.8,3.4c0.2,1.1,3.6,1.7,0.8,2.8c-4.5,1.7-7.4,3.6-7.1,0c0.2-2.4-3.2-1.1-2.2,0.8
			c2,4.1,0.1,3.7-0.9,4.3c-2,1.1-2.5,1.9-3.3,0.4c-0.1-0.3-0.8-0.2-0.7,0.3C296,21.6,296.1,22,296.2,22.4L296.2,22.4z M142.5,85.8
			c0.6-0.6,3.7-6.1,4.1-6.8c0.5-0.8,0-1.3-0.3-1C145.5,79,141.5,85.1,142.5,85.8z M268.9-1.6c1.3-0.8,0.8-0.7,0.3-1.1
			C268-3.9,266-3,267-2.5C267.6-2.2,268.3-1.9,268.9-1.6z M304.6-5.8c0.1-0.7-0.2-1.2-1.1-0.8C304.2-5.2,304.1-5.6,304.6-5.8z
			 M309.4-4.3c-0.2-0.3-0.9-0.6-1.3-0.7c-0.1,0-0.3,0.1-0.4,0.2C308.1-4.1,308.7-4,309.4-4.3z M436.4,21.2c-0.9-1.7-4.6-2.4-4.1-4.1
			c0.7,0.7,1.4,1,2.2,1.1c0.5,0.1-0.5-1.3-2.3-1.6c0.3-3.9-4.2-3.6-5.2-5.1l0,0.1c2.1-2,33.2,17.1,55.5,39.2
			c39.7,39.3,55.6,86.1,55.2,88.2c-1.4-1-3.9-7.7-3.9-6.6c0,1.1,21.2,42.3,13,69.4c-0.6,1.8,0.1,4.7,0.7,5.4
			c1.2-1.1,1.2-4.8,2.2-5.9c1.3,2.1,1.1,23.6-1.6,37.6c-2.5,12.6-13.1,38.7-14.4,52.7c-0.2,2.1-2.5,7-4.7,13.5
			c-4.4,13-13.9,19.5-16.9,26.1c-7,15.2-36.1,47.2-45.2,46.3c-2.4-0.2-8,3.7-9.4,2.5c-1.8-1.4,0.7-5.4,2-6.2c2.4-1.5,1.4-3.4,3.6-8
			c2-4.3-1.2-3.3,2.6-10.8c5.7-11.2,6.3-20.2,5.6-24.4c-0.7-4,8.2-19.2,11.1-21.7c5.9-5.2,1.1-11.2,4-14.2c1.6-1.5-0.1-4,0.2-10.3
			c0.6-9.8-8.5-15.9-4.8-21c2.7-3.7,1.5-5.7,3.5-11.2c0.9-2.4,0.8-4.6-1.2-6.4c-0.7-0.6-0.6-2-1.6-2c-1.7-0.1-7,3.6-8.7-0.7
			c-2.5-6.5-1.1-6.6-7.1-6.3c-6.4,0.3-13.9,7-17.5,5.6c-13.9-5.4-13.9,6.3-23.5-2c-2.3-2-2.9-4.4-4.6-4.3c-0.5,0-3.7-4.5-4.5-4.4
			c-1.4,0.1-4.7-3.8-4.6-6.4c0.1-4.4-6.9-8.9-7.3-11.1c-0.5-3-2.6-1.1-3.4-3.2c-0.5-1.4-1.3-0.7-1.2-2.2c0.4-7,0.6-4.9-1.2-8.5
			c-1-2.1,3-3.3,2.6-6.6c-0.3-2.5,4.1-6.1,1-11.2c-0.8-1.3-0.2-1.4,0-2.5c0.7-2.9,0.6-1.8-0.7-3.5c-3.6-4.6-0.5-5.3,1.7-10.8
			c2.3-5.7,4.5-3.7,4.4-7.7c0-4.9,3.7-3.4,4.3-7.3c0.6-3.9,3.4-2.6,4.5-3.3c11.4-7.4,2.9-8.6,6.1-13.4c0.2-0.4,0.4-0.8,0.4-1.3
			c0.4-5,6-4.7,6.9-7.9c1.8-6.4,0.5-5.7-1.3-8.3c-2-2.9-6.3,2-7.2-3.6c-0.7-4.5-3.2-2.8-2.5-6.5c0.2-1.2,1.2-2.5,0.2-3.6
			c-0.1-0.1-0.3-0.4-0.2-0.4c1.5-1.6-0.5-2.8-0.5-4.2c-0.1-3.1-2.8-4.4-1.3-5.4c5-3.1,2.7-0.2,6.5-1c2.2-0.4,2.4,0.9,4.1,0.7
			c1.9-0.2,3.7,0.3,5.5,0.8c1.3,0.4,2.2-0.9,1.9-1.8c-3-10.1-3.8-7.7-4.7-9c-3.3-4.7-5.7-2.3-7.9-5.5c-1.7-2.5,3.1-1.7,4.2-1.4
			c0.3,0.1,0.8-0.1,1-0.4c0.4-0.6-0.7-1.5-0.7-2.1c-0.1-1.9,3.2,1.5,3.7,0c0.3-0.8,0.9-1,1.5-1.5c0.8-0.6,0.1-2.8-0.8-2.4
			c-0.2,0.1-0.5,0.4-0.7,0.4c-2.2-0.7-4.4,0.9-6.6,0.3c-0.3-0.1-1,0.2-1.2,0.4c-0.8,1.2-5.2,1.5-4-1.9c0.2-0.5,1-0.8,0.5-1.3
			c-0.9-1-2,0.2-2.7-1.4c-0.6-1.6,1.8-1.1,0.5-2.9c-1.3-1.8-1.5-1.7,0.1-2.2c0.7-0.2,0.9-0.6,0.4-1.2c-2.3-2.6-4.5-2.5-4.6-1.9
			c-0.4,4.6,0.5,1.8,1.2,5.3c0.4,1.8-0.2,1.4-2.9,2.5c-2.3,1-3,2-5.4,0c-1.8-1.5,1.1-3.8-0.7-4.6c-1.1-0.5-1.6-2.5-1.5-2.9
			c0.4-1.1,2.4,0.7,2.3-1.4c0-0.3-0.1-0.5-0.1-0.8c0-1,3.6-1.6,5.7,0.3c0.9,0.8,0.9-1.2,0.4-1.2c-2.2,0.3-1.2-1.5-2.3-2.1
			c-2.2-1.3-2.1-6.7-1.3-6.9c4.9-0.9,2.1,2,3.4,2.2c2.6,0.4,3.9-0.5,4,3.3c0.1,2.3,7.4,6.6,9.7,9.5c0.6,0.7,1.3,1.1,2.2,1.3
			c4.7,1.2,1.5,5.2,4.5,5.8c2.5,0.5,2-2.3,3.5-2.6c0.7-0.1,0.9-1.4,0.5-2.1c-0.4-0.6-1.4-1.2-0.9-2c0.3-0.5,1.2-0.5,1.9-0.8
			c4.2-1.6,1.7-0.7-3.5-8.5c-0.8-1.2-0.7-1.4,0.3-2.5c1.5-1.8,1.8,1.4,4,2.6c0.4,0.2,0.4,0.7,0.4,1.2c-0.1,0.7,1.1,1.3,1.5,0.7
			c1.6-3,1-1-7.3-8.9c-0.5-0.3-1.4,0-1.6,0.6c-0.3,1.1,0.2,4.2-5,1c-1.7-1-1-2.9-4.3-4.9c-1.8-1.1-3.6-4.4-3.4-5.2
			c0.6-2.3,2-1.9,1.3-6.1c-0.4-2.6-2.3-3.3-3.4-7c-0.6-2.1-4.4-2.4-2.9-3.3c0.4-0.3,0.1-0.6,0-0.9c-0.3-1.4,0.5-0.6,1.1-1.7
			c0.3-0.4,0.1-1.1,0.4-1.5c1.9-2.5,4.6,1.2,10.6,1.7C428.3,18,436.3,21.2,436.4,21.2c0.4,0.9,1.9,1.7,2.1,1.3
			C438.7,22.1,437.7,21,436.4,21.2z M513.7,113.3c-2.9-1.2-0.4,4-3.9,1.3c-1.4-1.1-1.4-1.1-2,0.8c-0.6,2.1-2.2-1-4.1-1.5
			c-1.8-0.5-4.7-5.3-5.2-6.6c-1.3-3.3-1.6-1.1-2.9-3.7c-0.6-1.2-0.5-2.7-2.9-3.1c-1.9-0.3-0.6,2-1.6,2.6c-0.5,0.3-0.6,0.5-0.3,1
			c1.9,2.6,1.9,3.3,3.2,3.4c1.5,0.2,3,3.3,1.7,4.2c0.1,3.1,0.3,1.9,0.7,3.3c0.1,0.2-0.2,0.6-0.3,0.6c-4.2-1-1.3-0.2-6.6-6.7
			c-3.4-4.3-6-5.5-6.5-7.8c-1.2-5.2-10.2-8.1-11.4-9.1c-4-3.3-3.2-4.8-4.6-3.8c-1.4,0.9-1.9-2.9-2.9-1.8c-1.1,1.1,1.2,4.4,2.7,5
			c2.9,1.3,2.9,4.3,6.6,5.8c4.4,1.8,1.8,1.3,4.2,2.6c3.4,1.9,4.9,2.5,5.9,4.5c0.2,0.4-0.2,1.1-0.8,0.7c-0.4-0.2-2-1.5-2.3-1.1
			c-0.6,0.9,0.4,1.9,1.3,2.6c1.3,1.1,1.1,2.1,0.7,5c-0.2,1.7-1.6,0.9-0.9,2.5c0.3,0.7,0.7,1.4,0.9,2.2c0.9,3.3-9.8-3-7.8-4.3
			c1.9-1.3,1.7,0.4,4.8-0.8c4.2-1.5-3.7-8.6-7.6-10c-9.1-3.3-11.5-13.8-14.6-9.4c-3.4,5-3.4,3-5,2.7c-2.7-0.5-5.5-1.2-3.4,3
			c2.2,4.4-2.5,1.5-4.5,8.7c-0.9,3.5,2.1,2.2,0.8,5.1c-0.7,1.7-0.5,2.9-1.3,3.3c-3,1.4,1,3.8-6.5,2.8c-2-0.3-4.1,1.6-3.6,2.2
			c2.2,3.1,3.2,2.2,7.4,2.6c2.9,0.3,1.6,0.2,7.2-3.3c2.8-1.8,8.8-2.9,10.2-2.4c3.1,1.1,3-0.6,4.8-0.6c3.1,0.1,4.4,0.5,5.3-0.8
			c1.4-2,2.5,1.5,4.1,0.6c0.3-0.2,1.4,1.2,1,2.2c-1.1,2.6,4.3,3.3,1.8,8.2c-0.6,1.1-0.5,1.1,2.4,2.7c0.7,0.4,3.7,2.3,4.3,1.8
			c0.7-0.6,2,0.5,3.7,0.8c4.3,0.8,1.9,4.5,6.3,5.1c3.7,0.5,4,2.2,5.5,2.6c0.7,0.2,1.9-0.6,1.4-1.9c-1.7-4.2-3-6.1,1-8.2
			c1.5-0.8,2.3,2.4,5.6,2.6c0.3,0,0.6,0.1,0.7,0.3c0.7,1,1.7,1,2.8,1.1c0.5,0,3.1,1.1,4.1,1.3c1.9,0.4,1.7-1.5,2.8-2.3
			c0.8-0.6,1.2,0.3,1.8,0.6c0.9,0.4,1.9-0.1,2-1.1C520.1,129.4,515.1,113.8,513.7,113.3z M431.4,30.1c1.1,0.9,1.7,2,1.7,3.5
			c-0.3,6.2,10.4,7.1,9.8,11.8c-0.3,2.8,5.9,7,3.1,8.1c-0.4,0.2-0.3,0.5-0.3,0.9c0.1,1.1,0.1,1.2-1,1.2c-0.4,0-0.7,0-0.7,0.5
			c-0.1,1.8-1.7-1-2.5,1c-0.1,0.1,0.2,0.5,0.4,0.6c1.9,0.3,1.7,2.2,3.2,0.8c1.2-1.1,0.8-0.7,3,0.2c2.7,1.2,2.7-1.7,4.1-2.4
			c0.9-0.5,1.6,0.6,2.5,0.8c0.8,0.1,0.5-0.6,0.6-2.4c0,0-7.7-9.1-3.1-6.5c4.6,2.6-0.7-3.3-1.7-1.7c-0.6,0.8-2.2-0.5-1.8-1.4
			c0.8-1.7-2.3-2.5,1.9-3.3c1.6-0.3-0.2-2.9-1.6-1.7c-0.5,0.4-1.9,2-2.5,1.8c-1.8-0.6-3.6-1.1-5-2.6c-5-5.4-4.3-2.3-8.1-10.5
			C432.3,26.9,427.8,27.1,431.4,30.1z M544.5,191c0,0,0.1,0,0.1,0c-4.4-21.4-5.2-13.7-8.3-25.7c-1.7-6.4-2.9-6.1-4-8.4
			c-2.7-5.7-6.3-13.9-6.9-10.2c0,0,13.7,28.8,15.7,39.9c0.5,2.7,3.7,9.5,4.3,10.3C545.6,196,545.7,197.3,544.5,191z M438.2,24.3
			c-3.2-0.1-1.1,0.8,3.6,3.9c0.1,0.1,0.3-0.1,0.5-0.1c-0.5-0.8-1.1-1-0.3-1.4c0.2-0.1,0.5-0.3,0.2-0.6
			C439.9,24.5,439.3,23.9,438.2,24.3z M175.1,128.1c-1.1,0.5-2.5,3.7,0.6,3c2.9-0.6,4.1-1.3,4.2-0.3c0.2,2.7,2.3,1,4.6,4
			c2.4,3.1,2.4-0.1,3.1,4.7c0.3,2.2,3.1,0.1,0.7,3.2c-0.6,0.8,0.7,1.5,1.6,1.5c4.1,0,5.1,2.9,8.5,1.1c1.9-1-1.8-3.1-2.2-5
			c0,0-3.5-2.5-4-5.2c-0.5-2.6-3.1-2.4-3.9-3.7c-2.3-4-9.5-3.9-10.6-4.1C176.8,127.5,175.9,127.8,175.1,128.1z M208.6,155.9
			c3-1.5,3.3,2.5,5.9,0.6c0.9-0.6,1.3-1.3-1-3.7c-7.1-7.4-6.3-3-10.9-6.3c-1.6-1.2-3.2,0.7-2.2,1.6c0.9,0.8,0.6,1.4,0.5,2.7
			c-0.2,3-4.3-2.6-5.5,0.3c-0.4,1-0.2,1.5,0.7,1.9c0.3,0.1,0.7,0.4,1,0.3c1.6-0.3,2.8,1,4.4,1.1c1.1,0.1,1,3.7,3.7,1.7
			c0.9-0.7,0.1-0.5,1.3-1C207.2,155.6,208,156.3,208.6,155.9z M384.7,30.6c1.4-0.5,1.6-2.4,0.3-3.2c-6.1-3.8-3.9-1.5-7.1-1.9
			c-1.3-0.1-2.5,0-3.7,0.4c-0.9,0.3-0.9-0.1-2.4-1.3c-1.2-1-4.1,0.8-2.3,1.9c0.4,0.2,1.2,0.3,1.2,0.4c0.1,1.3,1.5,1.5,1.9,2.5
			c0.7,1.5,4.9,2.4,6.6,2.8C381.1,31.7,382.9,31.2,384.7,30.6z M529.8,308.1c-2.4,1.8-6.9,13.5-10.6,19.3
			c-0.5,0.8-8.8,13.7-8.3,14.6C513.7,341.1,530.1,310.1,529.8,308.1z M391.1,3c-0.7-0.4-1.3-0.8-2-1.2c0-1.3-3.9-3.2-7-1.2
			c-1,0.7-1,0.4,9.3,4.7c0.6,0.3,0.5,0.2,1.2,0c-0.4-0.6-1-1.2-1.6-1.8C391.1,3.4,391.1,3.2,391.1,3z M186.8,148
			c-2.7-1.5-5.3,3.8,2.2,4.2C190,151.5,191.6,150.7,186.8,148z M218.2,156.4c-0.6-0.1-1.4,0.7-1.5,1.3c-0.2,1.5,1.2,1.5,5.1,2.5
			C225.6,158.1,222.4,157.2,218.2,156.4z M194.7,123.5c-2.8,1.5-2.2,1.9-1.4,5.4c0.1,0.5,0.3,0.8,0.9,0.9c1.4,0.2,1.3-0.6,2.1-4.8
			C196.1,123.5,195.4,123.1,194.7,123.5z M243.5,405.1c0.5-0.2,0.6-1,0.2-1.3c-0.8-0.7-3.7-1.2-5.3-1.5c-1.2-0.2-3.8,2.9,3.7,3.2
			C242.5,405.4,243,405.3,243.5,405.1z M276.5,52.8c-1.7-0.6-1.9,3.1,2.3,3.4c0.2,0,0.5-0.4,0.8-0.6
			C279.3,54.6,278.9,53.6,276.5,52.8z M294.1,419.1c3.2,1.6,3.4-2.5-2.3-2.7C290.5,417.2,290.6,417.4,294.1,419.1z M411.4,5.1
			c0.1,0.1,0.3,0,0.5,0c-0.5-0.9-6.4-3.7-7.4-4.1C403.7,1.6,405,1.9,411.4,5.1z M427,11.6C412.1,5.8,424.8,12.8,427,11.6L427,11.6z
			 M272.9,15.6c3.5-0.9-0.1-2.6-2.5-0.5C269.8,15.6,270.4,16.2,272.9,15.6z M273.2,18.1c0.8,0.4,2.9-0.6,3-1.4
			C275.2,15.7,272.3,17.7,273.2,18.1z M296.2,22.4c-0.3,0.2-0.5,0.4-0.8,0.7c-0.8,0.6-0.2,1.5,0.1,1.4
			C296.6,23.9,297.2,23.3,296.2,22.4L296.2,22.4z M391.1,3c0,0.2,0,0.4,0,0.6C395.1,5,395.4,4,391.1,3z M416.2,7.4
			c0.2,0.1,0.3-0.2,0.4-0.4C413.4,5.7,413.9,6.3,416.2,7.4z M387.5-3.8c-0.3,0.4,2.6,1.1,2.1,0.6c-0.5-0.5-1.1-0.7-1.7-1.1
			C387.7-4,387.6-3.9,387.5-3.8z M466.3,104.4c-0.5-2.8-3.2-3-3.1-6c0-3.1-6.3-4.4-1.3,1.7c1.5,1.8-1.2,1.2,0.3,3.8
			c1.9,3.3,2,6.8,3.9,5.5c1.3-0.8,1.2-1,1.4-1.5C467.1,106.6,466.4,105.2,466.3,104.4z M502.1,121.7c1.7,0.5,3.6-2.6-2.5-2.7
			C497.5,120.6,501,121.4,502.1,121.7z M512.6,117.1c-1.6,2,1,5.1,1.9,2.9C515.1,118.3,513.5,115.9,512.6,117.1z M450.4,105.4
			c-1.2,0.1,0.1,4.4,2.5,2.1C452.7,106.1,451.7,105.3,450.4,105.4z M447.5,49.8c0,0,0.3-0.1,0.4-0.1C447.7,48,443.8,46.3,447.5,49.8
			z M360.2,439.5c-23.9,4.2-47.1,4.5-70.9,1.2c10.9-0.1,26.5,0.1,26.5,0.1c3.9-0.3,5.4-1.1,8.1-0.6c2.8,0.5,4.3,0.4,5.8,0.2
			c1.5-0.2,4.2-1,4.5-0.3C334.8,441.2,351.5,439.6,360.2,439.5z M339.3,439.3c-1.1-0.4-2.2,0.4-1.8,0.6
			C337.9,440,340.2,439.6,339.3,439.3z M267.4,435.5c-5.3-1.8-18.6-10.9-12.8-10.3c0.9,0.1,2.8,0.8,2.8,0.7c0-0.2,0.3-0.7,0.9-0.4
			c0.7,0.3,1.5-0.3,1.1-0.9c-1.3-1.8-9.3-0.6-10.4-0.8c-0.8-0.1-3-1-3.2-0.6c-0.1,0.4,1,1,0.8,1.4c-0.2,0.4-1.8-0.8-2-0.5
			c-0.2,0.3,0.2,0.5-0.3,0.8c-0.5,0.3-1.6-0.3-1.6,0.2c0,0.5,3.8,1.7,3.5,2.1c-0.8,0.9-5.5-1.3-5.3-0.6c0.2,0.7-4.1-0.1-3.2,0.5
			c11.8,4.7,24.3,8.6,38.9,11.5C276.1,436.9,269.5,436.2,267.4,435.5z M250.4,421.2c-0.7,0.1,0,1.3,1.3,1.4
			C256.1,422.8,251.5,421.1,250.4,421.2z"/>
	</g>
</g>
<ellipse class="st4" cx="323" cy="214.7" rx="230" ry="6.1"/>
<g>
	<linearGradient id="SVGID_4_" gradientUnits="userSpaceOnUse" x1="493.782" y1="139.623" x2="119.2998" y2="139.623">
		<stop  offset="8.011200e-04" style="stop-color:#871FFF"/>
		<stop  offset="0.9984" style="stop-color:#80C7F5"/>
	</linearGradient>
	<path class="st5" d="M477.7,139.6c0,7.9-7.7,13.8-12,20.5c-4,6.2-5.8,15.7-12.7,20.2c-6.2,4-15.7,2.1-23.6,4.2
		c-7.2,2-14.3,8.6-22.4,8.6c-8.1,0-15.2-6.7-22.4-8.6c-7.9-2.1-17.4-0.2-23.6-4.2c-6.9-4.5-8.6-13.9-12.7-20.2
		c-4.3-6.7-12-12.6-12-20.5c0-7.9,7.7-13.8,12-20.5c4-6.2,5.8-15.7,12.7-20.2c6.2-4,15.7-2.1,23.6-4.2c7.2-2,14.3-8.6,22.4-8.6
		c8.1,0,15.2,6.7,22.4,8.6c7.9,2.1,17.4,0.2,23.6,4.2c6.9,4.5,8.6,13.9,12.7,20.2C470,125.8,477.7,131.7,477.7,139.6z"/>
</g>
<g>
	<path class="st3" d="M402.8,212.3c0.7-3.1,1.2-6.2,1.6-9.2c0.4-3.1,0.7-6.2,1-9.2c0.5-6.2,0.7-12.3,0.9-18.5
		c0.4-12.3,0.6-24.7,0.5-37h0.7c-0.1,12.3,0.1,24.7,0.5,37c0.2,6.2,0.4,12.3,0.9,18.5c0.3,3.1,0.6,6.2,1,9.2
		c0.4,3.1,0.9,6.2,1.6,9.2H402.8z"/>
</g>
<g>
	<linearGradient id="SVGID_5_" gradientUnits="userSpaceOnUse" x1="503.3176" y1="148.7131" x2="128.8354" y2="148.7131">
		<stop  offset="8.011200e-04" style="stop-color:#871FFF"/>
		<stop  offset="0.9984" style="stop-color:#80C7F5"/>
	</linearGradient>
	<path class="st6" d="M230.1,148.7c0,5.6-5.4,9.7-8.4,14.4c-2.8,4.4-4,11-8.9,14.2c-4.4,2.8-11.1,1.5-16.6,3
		c-5.1,1.4-10,6.1-15.7,6.1c-5.7,0-10.7-4.7-15.7-6.1c-5.6-1.5-12.2-0.1-16.6-3c-4.9-3.2-6.1-9.8-8.9-14.2c-3-4.7-8.4-8.9-8.4-14.4
		c0-5.6,5.4-9.7,8.4-14.4c2.8-4.4,4-11,8.9-14.2c4.4-2.8,11.1-1.5,16.6-3c5.1-1.4,10-6.1,15.7-6.1c5.7,0,10.7,4.7,15.7,6.1
		c5.6,1.5,12.2,0.1,16.6,3c4.9,3.2,6.1,9.8,8.9,14.2C224.7,139,230.1,143.2,230.1,148.7z"/>
</g>
<g>
	<path class="st3" d="M176.2,212.3c0.7-2.7,1.2-5.4,1.6-8.1c0.4-2.7,0.7-5.4,1-8.1c0.5-5.4,0.7-10.8,0.9-16.1
		c0.4-10.8,0.6-21.5,0.5-32.3h0.7c-0.1,10.8,0.1,21.5,0.5,32.3c0.2,5.4,0.4,10.8,0.9,16.1c0.3,2.7,0.6,5.4,1,8.1
		c0.4,2.7,0.9,5.4,1.6,8.1H176.2z"/>
</g>
<g>
	<g>
		<g>
			<path class="st7" d="M500.5,123.1c5.6,5.2,8.4,12.3,8.1,19.4l-4.9,0.2c0.4-5.8-1.8-11.8-6.5-16c-4.6-4.3-10.8-5.9-16.5-5
				l-0.2-4.9C487.4,115.8,494.8,117.9,500.5,123.1z"/>
			<path class="st7" d="M494.6,129.5c3.9,3.5,5.6,8.5,5.2,13.4l-4.4,0.2c0.5-3.7-0.8-7.7-3.8-10.4c-3-2.7-7-3.7-10.7-2.8l-0.2-4.4
				C485.6,124.6,490.7,125.9,494.6,129.5z"/>
			<path class="st7" d="M507.9,115c7.9,7.2,11.8,17.1,11.6,27l-6,0.3c0.2-8.4-3-16.8-9.7-22.9c-6.6-6.1-15.3-8.6-23.7-7.7l-0.3-6
				C489.8,104.7,500,107.8,507.9,115z"/>
		</g>
	</g>
	<path class="st3" d="M474.1,145.8c9.4,9.5,9.3,28.3,9.3,28.3h-20.3c0,0,0.8-13.5,1.5-17.9C465.1,152.7,468.3,140,474.1,145.8z"/>
	<g>
		<circle cx="471.3" cy="141.2" r="3.4"/>
		
			<linearGradient id="SVGID_6_" gradientUnits="userSpaceOnUse" x1="-11307.4121" y1="-37.7307" x2="-11334.9238" y2="-2.4583" gradientTransform="matrix(-1 0 0 1 -10842.7002 173)">
			<stop  offset="0" style="stop-color:#CF3393"/>
			<stop  offset="0.9984" style="stop-color:#F8A58D"/>
		</linearGradient>
		<path class="st8" d="M474.5,140.2c-0.3-1.5-1.6-2.4-3.2-2.4c-0.2,0-0.5,0-0.6,0c0.2-0.3,0.3-0.6,0.3-1.1c0-1.3-1-2.3-2.3-2.3
			c-1.3,0-2.3,1-2.3,2.3c0,1.3,1,2.3,2.3,2.3c-0.8,0.5-1.3,1.9-1.1,3.2c0.3,2.1-1.6,2.6-1.5,3.1c3.2,0.8,4-3.7,4.4-4.5
			C472.3,140.8,473.2,140.5,474.5,140.2z"/>
		<path class="st7" d="M471.6,138.9c-1.1-0.3-2.1,0.5-2.3,1.6l-0.5,3.4c-0.3,1.1,0.5,2.1,1.6,2.3l8.9,1.5c1.1,0.3,2.1-0.5,2.3-1.6
			l0.5-3.4c0.3-1.1-0.5-2.1-1.6-2.3L471.6,138.9z"/>
		<path class="st9" d="M444.3,198.1l8.5,14.8c0,0,1.5,1.9,3.8,0.5c0,0,1.9-1.2,0.8-3.3l-2.6-5.3l17.9-11.1l1.1-15.1l17.5,39.3
			l14.4-6.9c0,0,2-1.3,0.7-3.4c0,0-0.9-1.6-2.9-0.8l-4.1,2L483.4,174h-20.3l-0.7,13.2L444.3,198.1z"/>
		<path d="M477.7,142.1c0,0,4.5,7,5.8,9.4c1.7,3.1,0.2,6.1-3,6.2c-2.9,0.1-10,0-10,0l2.3-6.6l2.7,0.1l-3.4-5c0,0-0.5-0.7-0.7-1.6
			c0-0.1,0-0.1,0-0.1c-0.5-1.9,0.6-3.7,2.4-4.3C475.4,139.9,477,140.6,477.7,142.1z"/>
	</g>
</g>
<g>
	<g>
		<path class="st3" d="M161.7,170.4h-21.4c0.3-16.7,3.2-25.7,9-31.5c2.1-2.1,5.8-2,7.2,0.1C160.9,145.6,162.1,157.5,161.7,170.4z"/>
		
			<linearGradient id="SVGID_7_" gradientUnits="userSpaceOnUse" x1="1126.0614" y1="157.9693" x2="1149.9414" y2="129.6118" gradientTransform="matrix(1 0 0 1 -999.1195 0)">
			<stop  offset="8.011200e-04" style="stop-color:#871FFF"/>
			<stop  offset="1" style="stop-color:#FFA68C"/>
		</linearGradient>
		<path class="st10" d="M136,156.3l0.3-8.7c0-1.3-1-2.3-2.2-2.4l-3.4-0.1c-1.3,0-2.3,1-2.4,2.2L128,156c0,1.3,1,2.3,2.2,2.4l3.4,0.1
			C134.9,158.6,136,157.6,136,156.3z"/>
		<circle cx="152.5" cy="133.4" r="2.9"/>
		<g>
			<path class="st11" d="M152.4,130.2c1.8,0,3.2,1.4,3.2,3.2c0,0.4-0.1,0.9-0.3,1.3c-1-0.4-1.8-1.1-2.3-2c-0.4,0.1-0.8,0.1-1.2,0.1
				c-0.8,0-1.6-0.2-2.3-0.5C149.9,131,151,130.2,152.4,130.2z"/>
		</g>
		<path d="M150.5,160.5l-18.7-5.9c-1.9-0.6-2.9-2.6-2.3-4.5v0c0.6-1.9,2.6-2.9,4.5-2.3l15.6,4.9l0.7-2.7l6.1,2.5l-1.1,5.1
			C154.9,159.8,152.6,161.2,150.5,160.5z"/>
	</g>
	<g>
		<g>
			<path class="st9" d="M152.8,109.2c-7.4,0-13.9,3.3-18.3,8.5l3.3,3.3c3.5-4.4,9-7.2,15-7.2c6.1,0,11.5,2.8,15,7.2l3.3-3.3
				C166.8,112.6,160.2,109.2,152.8,109.2z"/>
			<path class="st9" d="M152.8,117.6c-5.1,0-9.5,2.4-12.4,6.1l3,3c2.1-3,5.5-4.9,9.4-4.9c3.9,0,7.3,2,9.4,4.9l3-3
				C162.4,120,157.9,117.6,152.8,117.6z"/>
			<path class="st9" d="M152.8,98.7c-10.3,0-19.5,4.5-25.8,11.6l4.1,4.1c5.3-6.1,13.1-9.9,21.7-9.9c8.7,0,16.5,3.9,21.7,9.9l4.1-4.1
				C172.3,103.2,163.1,98.7,152.8,98.7z"/>
		</g>
	</g>
</g>
<path class="st0" d="M242.5,79.5h-9.1h-13.2h-21.4h-20.4h-16.3c0-10.1,8.2-18.3,18.3-18.3c1.5,0,3.1,0.2,4.5,0.6
	c5-5.9,12.6-9.7,20.9-9.7c11.2,0,20.8,6.7,25.1,16.3c0.1,0,0.2,0,0.3,0C237.5,68.3,242.5,73.3,242.5,79.5z"/>
<g>
	<linearGradient id="SVGID_8_" gradientUnits="userSpaceOnUse" x1="197.9799" y1="177.0987" x2="333.9982" y2="177.0987">
		<stop  offset="0" style="stop-color:#D6219C"/>
		<stop  offset="1" style="stop-color:#FFA68C"/>
	</linearGradient>
	<path class="st12" d="M254.2,212.8v-61.1c0-5.7-4.7-10.4-10.4-10.4h-28.7c-5.7,0-10.4,4.7-10.4,10.4v61.1H254.2z"/>
	<rect x="215.1" y="153.7" class="st3" width="5.2" height="5.2"/>
	<rect x="226.8" y="153.7" class="st3" width="5.2" height="5.2"/>
	<rect x="238.6" y="153.7" class="st3" width="5.2" height="5.2"/>
	<rect x="215.1" y="164.9" class="st3" width="5.2" height="5.2"/>
	<rect x="226.8" y="164.9" class="st3" width="5.2" height="5.2"/>
	<rect x="238.6" y="164.9" class="st3" width="5.2" height="5.2"/>
	<rect x="215.1" y="175.7" class="st3" width="5.2" height="5.2"/>
	<rect x="226.8" y="175.7" class="st3" width="5.2" height="5.2"/>
	<rect x="238.6" y="175.7" class="st3" width="5.2" height="5.2"/>
	<rect x="221.2" y="192" class="st3" width="15.8" height="20.2"/>
</g>
<path class="st0" d="M521.6,76.4h-7.1h-10.3h-16.6h-15.8h-12.7c0-7.9,6.4-14.3,14.3-14.3c1.2,0,2.4,0.2,3.5,0.4
	c3.9-4.6,9.8-7.5,16.3-7.5c8.7,0,16.2,5.2,19.5,12.7c0.1,0,0.2,0,0.3,0C517.7,67.7,521.6,71.6,521.6,76.4z"/>
<g>
	<linearGradient id="SVGID_9_" gradientUnits="userSpaceOnUse" x1="496.4245" y1="163.1112" x2="121.9423" y2="163.1112">
		<stop  offset="8.011200e-04" style="stop-color:#871FFF"/>
		<stop  offset="0.9984" style="stop-color:#80C7F5"/>
	</linearGradient>
	<path class="st13" d="M392,163.1c0,5.4-5.2,9.4-8.1,13.9c-2.7,4.2-3.9,10.6-8.6,13.6c-4.2,2.7-10.6,1.4-16,2.9
		c-4.9,1.3-9.6,5.8-15.1,5.8c-5.5,0-10.3-4.5-15.1-5.8c-5.3-1.4-11.8-0.1-16-2.9c-4.7-3-5.8-9.4-8.6-13.6c-2.9-4.5-8.1-8.5-8.1-13.9
		c0-5.4,5.2-9.4,8.1-13.9c2.7-4.2,3.9-10.6,8.6-13.6c4.2-2.7,10.6-1.4,16-2.9c4.9-1.3,9.6-5.8,15.1-5.8c5.5,0,10.3,4.5,15.1,5.8
		c5.3,1.4,11.8,0.1,16,2.9c4.7,3,5.8,9.4,8.6,13.6C386.9,153.7,392,157.8,392,163.1z"/>
</g>
<g>
	<path class="st3" d="M340,212.3c1.3-4.2,2-8.3,2.5-12.5c0.5-4.2,0.7-8.3,0.9-12.5c0.4-8.3,0.6-16.7,0.5-25h0.7
		c-0.1,8.3,0.1,16.7,0.5,25c0.2,4.2,0.4,8.3,0.9,12.5c0.5,4.2,1.2,8.3,2.5,12.5H340z"/>
</g>
<g>
	<linearGradient id="SVGID_10_" gradientUnits="userSpaceOnUse" x1="201.6154" y1="149.9951" x2="314.3552" y2="149.9951">
		<stop  offset="0" style="stop-color:#D6219C"/>
		<stop  offset="1" style="stop-color:#FFA68C"/>
	</linearGradient>
	<path class="st14" d="M313.9,212.8V97.6c0-5.7-4.7-10.4-10.4-10.4h-28.7c-5.7,0-10.4,4.7-10.4,10.4v115.3H313.9z"/>
	<rect x="274.8" y="150.2" class="st3" width="5.2" height="5.2"/>
	<rect x="286.5" y="150.2" class="st3" width="5.2" height="5.2"/>
	<rect x="298.3" y="150.2" class="st3" width="5.2" height="5.2"/>
	<rect x="274.8" y="161.4" class="st3" width="5.2" height="5.2"/>
	<rect x="286.5" y="161.4" class="st3" width="5.2" height="5.2"/>
	<rect x="298.3" y="161.4" class="st3" width="5.2" height="5.2"/>
	<rect x="274.8" y="172.2" class="st3" width="5.2" height="5.2"/>
	<rect x="286.5" y="172.2" class="st3" width="5.2" height="5.2"/>
	<rect x="298.3" y="172.2" class="st3" width="5.2" height="5.2"/>
	<rect x="281.3" y="192" class="st3" width="15.8" height="20.2"/>
	<rect x="274.8" y="117.1" class="st3" width="5.2" height="5.2"/>
	<rect x="286.5" y="117.1" class="st3" width="5.2" height="5.2"/>
	<rect x="298.3" y="117.1" class="st3" width="5.2" height="5.2"/>
	<rect x="274.8" y="128.3" class="st3" width="5.2" height="5.2"/>
	<rect x="286.5" y="128.3" class="st3" width="5.2" height="5.2"/>
	<rect x="298.3" y="128.3" class="st3" width="5.2" height="5.2"/>
	<rect x="274.8" y="139.1" class="st3" width="5.2" height="5.2"/>
	<rect x="286.5" y="139.1" class="st3" width="5.2" height="5.2"/>
	<rect x="298.3" y="139.1" class="st3" width="5.2" height="5.2"/>
	<rect x="274.8" y="106" class="st3" width="5.2" height="5.2"/>
	<rect x="286.5" y="106" class="st3" width="5.2" height="5.2"/>
	<rect x="298.3" y="106" class="st3" width="5.2" height="5.2"/>
</g>
<path class="st0" d="M299.6,45.6h8.6h12.4h20h19.1H375c0-9.5-7.7-17.2-17.2-17.2c-1.5,0-2.9,0.2-4.2,0.5c-4.7-5.6-11.8-9.1-19.6-9.1
	c-10.5,0-19.5,6.3-23.5,15.3c-0.1,0-0.2,0-0.3,0C304.3,35.1,299.6,39.8,299.6,45.6z"/>
<path class="st15" d="M161.8,185.4l-0.4-15.1h-12.8l0,0l-7.6,0l-18.2,33l-2-1.2c-1.4-0.9-3.3-0.3-4,1.2c-0.6,1.3-0.1,2.7,1.1,3.4
	l12.7,7l18.6-32.2l0.5,7.9l13.2,16.6l-2.5,2c-1.1,0.9-1.3,2.5-0.3,3.6c0.9,1,2.5,1.2,3.6,0.4l11.2-8.4L161.8,185.4z"/>
<g>
	<path d="M384.4,185.1L384.4,185.1c-1,0.5-2.3,0.1-2.8-1l-5-10.3l3.7-1.8l5,10.3C385.8,183.4,385.4,184.6,384.4,185.1z"/>
	<g>
		<g>
			<path class="st3" d="M378.2,154.7c-3.9,0-7.3,1.7-9.6,4.5l1.8,1.8c1.9-2.3,4.7-3.8,7.9-3.8c3.2,0,6,1.5,7.9,3.8l1.8-1.8
				C385.5,156.5,382,154.7,378.2,154.7z"/>
			<path class="st3" d="M378.2,159.1c-2.7,0-5,1.3-6.5,3.2l1.6,1.6c1.1-1.6,2.9-2.6,5-2.6c2.1,0,3.9,1,5,2.6l1.6-1.6
				C383.2,160.4,380.8,159.1,378.2,159.1z"/>
			<path class="st3" d="M378.2,149.2c-5.4,0-10.2,2.4-13.6,6.1l2.1,2.1c2.8-3.2,6.9-5.2,11.4-5.2c4.6,0,8.7,2,11.4,5.2l2.1-2.1
				C388.4,151.5,383.6,149.2,378.2,149.2z"/>
		</g>
	</g>
	<linearGradient id="SVGID_11_" gradientUnits="userSpaceOnUse" x1="373.8175" y1="166.2371" x2="373.8175" y2="207.3332">
		<stop  offset="0" style="stop-color:#FFA68C"/>
		<stop  offset="0.7081" style="stop-color:#D6219C"/>
	</linearGradient>
	<path class="st16" d="M363.6,179.5l0.2-5c0-0.7,0.6-1.3,1.4-1.3l1.9,0.1c0.7,0,1.3,0.6,1.3,1.4l-0.2,5c0,0.7-0.6,1.3-1.4,1.3
		l-1.9-0.1C364.1,180.8,363.5,180.2,363.6,179.5z M384.1,187h-4.2l-9.1-0.1l-3.9,4.1l-3,12.3l-2.6-0.7c-0.7-0.2-1.5,0.2-1.7,0.9
		c-0.2,0.7,0.2,1.5,0.9,1.7l9.3,2.7l3.7-14.7l3.7-3.8l3.3,21.4l-1.7,0.5c-0.8,0.2-1.2,1-1,1.8c0.2,0.7,1,1.2,1.7,1l8.3-2L384.1,187z
		"/>
	<path class="st3" d="M379.5,169.1c-0.6-1.4-2.4-1.5-3.2-0.2c-2.5,4.1-5.8,12.8-5.8,18.2h13.6C384.1,181.6,381.6,173.7,379.5,169.1z
		"/>
	<path d="M376.4,180.6l-10.4-0.7c-1.2-0.1-2.1-1.1-2-2.3v0c0.1-1.2,1.1-2.1,2.3-2l9.2,0.7l0.7-2.2l3.5,1.4l-0.6,3.1
		C378.8,179.8,377.6,180.6,376.4,180.6z"/>
	<circle cx="378.2" cy="167.1" r="1.7"/>
	<g>
		<path class="st11" d="M378.2,165.4c0.9,0,1.7,0.7,1.7,1.7c0,0.2-0.1,0.5-0.1,0.7c-0.5-0.2-0.9-0.6-1.2-1.1c-0.2,0-0.4,0.1-0.6,0.1
			c-0.4,0-0.8-0.1-1.2-0.3C376.9,165.9,377.5,165.4,378.2,165.4z"/>
	</g>
</g>
<g>
	<rect x="529.4" y="86.2" class="st7" width="37" height="25.1"/>
	<polygon class="st15" points="529.4,86.2 547.9,98.7 566.4,86.1 	"/>
</g>
<g>
	<g>
		<g>
			<path class="st7" d="M234.1,51.2l2.6-9.5c-1.6-2.8-2.4-5.9-2.4-9.1c0-10.1,8.2-18.3,18.3-18.3c4.9,0,9.5,1.9,12.9,5.4
				c3.4,3.4,5.3,8,5.3,12.9c0,10.1-8.2,18.3-18.3,18.3l0,0l0,0c-3.1,0-6.1-0.8-8.7-2.2L234.1,51.2z"/>
		</g>
	</g>
	<path class="st3" d="M243.1,24C243.1,24,243.1,24,243.1,24c-0.4,2.4,0.3,5.5,1.5,8.4c0,0,1.6,4.1,4.3,6.9c2.3,2.3,5.5,4.7,8.3,5.3
		l0,0c1.3,0.2,4.1-2.4,4.1-2.5c0.3-0.3,0.5-0.7,0.5-1c0.1-0.5,0-0.9-0.3-1.2c-0.3-0.3-3.4-3.3-3.8-3.7c-0.2-0.2-0.4-0.2-0.6-0.3
		c-0.3-0.1-0.7,0-1.1,0.1c-0.4,0.1-1.5,1-2.1,0.7c-0.5-0.3-2-0.9-3.4-2.9c-1.3-1.9-1.4-3.5-1.4-4.1c0-0.6,1.2-1.4,1.4-1.7
		c0.3-0.3,0.4-0.7,0.5-1c0-0.3,0-0.5-0.1-0.7c-0.2-0.5-1.9-4.4-2.1-4.8c-0.2-0.4-0.5-0.6-1-0.7c-0.3-0.1-0.7,0-1.1,0.1
		C246.8,21.1,243.3,22.7,243.1,24z"/>
</g>
<g>
	<path class="st7" d="M389.8,82c0-0.1,0-0.1,0-0.2c0-2.3,0-4.6,0-6.9c0-0.1,0-0.2-0.1-0.2c-0.8-0.8-1.6-1.6-2.2-2.5
		c-0.7-1-1.3-2.2-1.7-3.3c-0.3-0.9-0.5-1.7-0.7-2.6c-0.1-0.4-0.1-0.8-0.1-1.2c0-0.5,0-1.1,0-1.6c0-0.4,0.1-0.8,0.1-1.2
		c0.1-1,0.4-2,0.8-3c0.5-1.3,1.2-2.5,2-3.6c1.2-1.6,2.7-2.9,4.4-3.9c1.5-0.9,3.1-1.5,4.8-1.9c0.5-0.1,1.1-0.2,1.6-0.3
		c0.3,0,0.5,0,0.8-0.1c0.2,0,0.4,0,0.6,0c0.4,0,0.7,0,1.1,0c0.7,0,1.5,0.1,2.2,0.3c1.3,0.2,2.5,0.6,3.6,1.1c1.3,0.6,2.5,1.3,3.5,2.2
		c1.4,1.2,2.6,2.5,3.5,4.1c0.7,1.2,1.2,2.5,1.5,3.9c0.1,0.5,0.2,1,0.3,1.6c0,0.3,0.1,0.7,0.1,1c0,0.3,0,0.5,0,0.8
		c0,0.6-0.1,1.1-0.1,1.7c-0.2,1.3-0.5,2.6-1.1,3.8c-0.5,1.2-1.2,2.3-2.1,3.4c-1.6,1.9-3.6,3.4-5.9,4.4c-1.2,0.5-2.4,0.8-3.7,1
		c-0.4,0.1-0.9,0.1-1.3,0.2c-0.7,0.1-1.3,0.1-2,0c-0.5,0-1.1-0.1-1.6-0.2c-0.6-0.1-1.2-0.2-1.8-0.4c-0.1,0-0.1,0-0.1,0
		c-2,1.2-4.1,2.4-6.1,3.7C390,82,389.9,82,389.8,82z M390.7,69c0.1,0,0.1,0,0.2-0.1c2.3-1.3,4.6-2.6,7-3.9c0.1,0,0.1,0,0.2,0
		c1.3,1.3,2.6,2.6,3.9,3.9c0.1,0.1,0.1,0.1,0.2,0c1.3-1.4,2.6-2.8,3.9-4.3c1.3-1.4,2.6-2.8,3.8-4.2c0.1-0.1,0.2-0.2,0.3-0.3
		c0,0,0,0,0,0c-0.1,0-0.1,0.1-0.2,0.1c-2.3,1.3-4.6,2.6-7,3.9c-0.1,0-0.1,0-0.2,0c-1.3-1.3-2.6-2.6-3.9-3.9c-0.1-0.1-0.1-0.1-0.2,0
		c-1.3,1.4-2.6,2.8-3.9,4.3C393.5,65.9,392.1,67.4,390.7,69z"/>
</g>
<g>
	<path class="st7" d="M525.9,160.6h22c2.4,0,4.3,1.9,4.3,4.3v14.2c0,2.4-1.9,4.3-4.3,4.3h-1.4v6.7l-8-6.7h-12.6
		c-2.4,0-4.3-1.9-4.3-4.3v-14.2C521.6,162.5,523.5,160.6,525.9,160.6z"/>
	<circle class="st3" cx="536.9" cy="171.9" r="2.4"/>
	<circle class="st3" cx="544.7" cy="171.9" r="2.4"/>
	<circle class="st3" cx="529.4" cy="171.9" r="2.4"/>
</g>
<g>
	<path class="st7" d="M455.3,27.8h-22c-2.4,0-4.3,1.9-4.3,4.3v14.2c0,2.4,1.9,4.3,4.3,4.3h1.4v6.7l8-6.7h12.6c2.4,0,4.3-1.9,4.3-4.3
		V32.1C459.6,29.8,457.7,27.8,455.3,27.8z"/>
	<path class="st3" d="M454.1,35.6h-19.6c-0.5,0-0.9-0.4-0.9-0.9v0c0-0.5,0.4-0.9,0.9-0.9h19.6c0.5,0,0.9,0.4,0.9,0.9v0
		C455,35.2,454.6,35.6,454.1,35.6z"/>
	<path class="st3" d="M454.1,40h-19.6c-0.5,0-0.9-0.4-0.9-0.9v0c0-0.5,0.4-0.9,0.9-0.9h19.6c0.5,0,0.9,0.4,0.9,0.9l0,0
		C455,39.6,454.6,40,454.1,40z"/>
	<path class="st3" d="M454.1,44.3h-19.6c-0.5,0-0.9-0.4-0.9-0.9l0,0c0-0.5,0.4-0.9,0.9-0.9h19.6c0.5,0,0.9,0.4,0.9,0.9l0,0
		C455,43.9,454.6,44.3,454.1,44.3z"/>
</g>
<g>
	<path class="st7" d="M113.6,49.3h26.9c2.9,0,5.3,2.4,5.3,5.3v17.3c0,2.9-2.4,5.3-5.3,5.3h-15.9l-4.4,5.1l-3.7-5.1h-2.8
		c-2.9,0-5.3-2.4-5.3-5.3V54.5C108.3,51.6,110.7,49.3,113.6,49.3z"/>
</g>
<g>
	<path class="st3" d="M136.5,70.2h-14.8c-0.6,0-1-0.5-1-1v-9c0-0.6,0.5-1,1-1h14.8c0.6,0,1,0.5,1,1v9
		C137.6,69.8,137.1,70.2,136.5,70.2z"/>
	<path class="st3" d="M115.6,69.7V59.7c0-0.7,0.8-1,1.3-0.5l5.6,5.6l-5.6,5.6C116.4,70.7,115.6,70.4,115.6,69.7z"/>
	<circle class="st3" cx="126.4" cy="57.4" r="3.7"/>
	<circle class="st3" cx="132.3" cy="58.4" r="2.6"/>
</g>
</svg>
